<?xml version="1.0" encoding="utf-8"?>
<svg xmlns="http://www.w3.org/2000/svg" fill="none" height="24" viewBox="0 0 20 24" width="20">
<path d="M19.2845 9.64845C19.6729 7.12663 17.6961 5.77095 14.9931 4.86657L15.8699 1.45044L13.7291 0.932214L12.8755 4.25832C12.3127 4.1221 11.7347 3.99359 11.1603 3.86626L12.02 0.518224L9.88044 0L9.00303 3.41494C8.53718 3.31189 8.07987 3.21004 7.63598 3.10284L7.63842 3.09217L4.68606 2.37613L4.11656 4.59709C4.11656 4.59709 5.70493 4.95067 5.6714 4.97258C6.53845 5.18283 6.69515 5.74014 6.66893 6.18196L5.67017 10.0737C5.72993 10.0885 5.80738 10.1098 5.89274 10.143C5.8214 10.1258 5.74518 10.1068 5.66652 10.0885L4.26654 15.5402C4.16045 15.7961 3.89156 16.1798 3.28548 16.0341C3.30682 16.0644 1.72941 15.6569 1.72941 15.6569L0.666626 18.0372L3.45254 18.7117C3.97082 18.8379 4.47873 18.97 4.97872 19.0943L4.09278 22.5496L6.23114 23.0678L7.10856 19.6493C7.69269 19.8033 8.25976 19.9454 8.81462 20.0793L7.94026 23.4818L10.0811 24L10.967 20.5513C14.6175 21.2223 17.3626 20.9517 18.5181 17.7446C19.4491 15.1623 18.4717 13.6728 16.551 12.7015C17.9498 12.3882 19.0034 11.4945 19.2845 9.64845ZM14.3931 16.3107C13.7316 18.893 9.25546 17.497 7.80427 17.147L8.97986 12.5694C10.431 12.9212 15.0846 13.6178 14.3931 16.3107ZM15.0553 9.61113C14.4517 11.96 10.7262 10.7666 9.51765 10.474L10.5835 6.32235C11.792 6.61492 15.684 7.16097 15.0553 9.61113Z" fill="#F7931A"/>
<path d="M18.904 9.58985L18.9039 9.5905C18.773 10.45 18.4679 11.0572 18.0591 11.4832C17.6493 11.9103 17.1098 12.1818 16.4669 12.3258L15.4191 12.5605L16.3773 13.0451C17.2955 13.5095 17.9349 14.0715 18.253 14.7772C18.568 15.476 18.5989 16.3854 18.1559 17.614L18.1559 17.6141C17.6164 19.1115 16.7292 19.8863 15.5679 20.2333C14.3724 20.5907 12.8492 20.5058 11.0366 20.1726L10.6835 20.1077L10.5941 20.4555L9.80263 23.5365L8.41032 23.1994L9.18751 20.1751L9.28476 19.7966L8.90491 19.705C8.35233 19.5717 7.78791 19.4302 7.2067 19.277L6.83199 19.1782L6.73565 19.5536L5.95266 22.6042L4.56261 22.2673L5.35166 19.19L5.44797 18.8143L5.07166 18.7207C4.87554 18.6719 4.67565 18.6213 4.47343 18.5701C4.16717 18.4925 3.85556 18.4136 3.54359 18.3377L3.54314 18.3375L1.20674 17.7718L1.9485 16.1105C2.08608 16.1456 2.25418 16.1883 2.42192 16.2303C2.61814 16.2795 2.81565 16.3281 2.9635 16.3628C3.03667 16.3799 3.10151 16.3946 3.14895 16.4041C3.17073 16.4085 3.19792 16.4136 3.22277 16.4168L3.22358 16.4169C3.22657 16.4173 3.23288 16.4181 3.24156 16.4189C3.62263 16.4992 3.9406 16.4243 4.18475 16.2528C4.42336 16.0853 4.55402 15.8521 4.62218 15.6877L4.63265 15.6624L4.63944 15.636L6.03942 10.1842L5.91675 10.1527L5.92133 10.1381L6.04309 10.1694L7.04184 6.27767L7.05106 6.24177L7.05325 6.20477C7.06938 5.93295 7.03155 5.59226 6.82745 5.27986C6.62556 4.97084 6.29227 4.73715 5.81123 4.61082C5.80575 4.60853 5.80165 4.60695 5.7994 4.60608L5.79855 4.60575C5.77253 4.59567 5.7439 4.58696 5.7223 4.58064C5.67463 4.56669 5.60939 4.5496 5.53642 4.53127C5.38867 4.49415 5.19046 4.44725 4.99355 4.40157C4.8527 4.3689 4.71143 4.33661 4.58799 4.30859L4.96461 2.83985L7.17843 3.37677L7.17591 3.3878L7.5456 3.47708C7.99354 3.58525 8.45418 3.68784 8.91987 3.79086L9.28329 3.87125L9.37591 3.51075L10.1588 0.463562L11.55 0.800523L10.7874 3.7705L10.6884 4.15599L11.077 4.24213C11.6518 4.36956 12.2263 4.49731 12.7849 4.63252L13.154 4.72185L13.2484 4.35403L14.0077 1.39575L15.4 1.7328L14.6202 4.77086L14.5311 5.11797L14.871 5.23168C16.2045 5.67786 17.3079 6.22028 18.0287 6.92606C18.7295 7.61217 19.0781 8.45947 18.904 9.58985ZM7.43137 17.0512L7.33419 17.4297L7.714 17.5213C7.8269 17.5485 7.9617 17.5831 8.11441 17.6224C8.90537 17.8256 10.1769 18.1524 11.3754 18.213C12.0917 18.2492 12.8259 18.1942 13.4388 17.9345C14.071 17.6667 14.5673 17.1819 14.7661 16.4065C14.971 15.6084 14.776 14.9362 14.343 14.3982C13.9252 13.8789 13.298 13.4976 12.6453 13.2099C11.5992 12.7487 10.3671 12.4807 9.56754 12.3067C9.37345 12.2645 9.20484 12.2278 9.07056 12.1953L8.70144 12.1058L8.60696 12.4737L7.43137 17.0512ZM15.4282 9.70696L15.4283 9.70681C15.6141 8.98228 15.4657 8.36967 15.1016 7.87617C14.7507 7.40067 14.2183 7.05963 13.6688 6.80767C12.7907 6.40506 11.7494 6.18177 11.0836 6.03899C10.9226 6.00447 10.7836 5.97466 10.6741 5.94815L10.305 5.8588L10.2106 6.22661L9.14474 10.3783L9.04768 10.7564L9.42706 10.8482C9.5201 10.8708 9.63201 10.8998 9.75938 10.9329C10.4171 11.1038 11.4869 11.3818 12.4996 11.4179C13.1067 11.4396 13.7373 11.3775 14.2697 11.1262C14.8205 10.8662 15.2472 10.4112 15.4282 9.70696Z" stroke="black" stroke-opacity="0.3" stroke-width="0.77"/>
</svg>